<svg xmlns="http://www.w3.org/2000/svg" viewBox="0 0 256 256">
<rect width="256" height="256" rx="40" fill="#24292f"/>
<path fill="#ffffff" d="M128 24C69 24 24 69 24 128c0 46 30 85 72 98 5 1 8-2 8-6v-22c-29 6-36-14-36-14-4-10-10-13-10-13-8-6 1-6 1-6 10 1 15 10 15 10 9 17 24 12 30 9 1-7 4-12 7-15-24-3-49-12-49-54 0-12 4-23 11-31-1-3-5-15 1-31 0 0 9-3 30 11 9-3 19-5 29-5s20 2 29 5c21-14 30-11 30-11 6 16 2 28 1 31 7 8 11 19 11 31 0 42-25 51-49 54 4 3 7 9 7 18v27c0 4 3 7 8 6 42-13 72-52 72-98 0-59-45-104-104-104z"/>
</svg>