<svg xmlns="http://www.w3.org/2000/svg" fill="none" viewBox="0 0 24 24" height="24" width="24">
<g clip-path="url(#clip0_5979_52706)">
<path fill="#496E2D" d="M24 12C24 10.5321 23.736 9.12602 23.2536 7.82609L12 7.30432L0.746391 7.82604C0.264047 9.12602 0 10.5321 0 12C0 13.4678 0.264047 14.8739 0.746391 16.1739L12 16.6956L23.2536 16.1739C23.736 14.8739 24 13.4678 24 12Z"></path>
<path fill="#D80027" d="M11.9997 24C17.1593 24 21.5578 20.7435 23.2533 16.1739H0.746094C2.44161 20.7435 6.84013 24 11.9997 24Z"></path>
<path fill="#F0F0F0" d="M0.746094 7.82611H23.2534C21.5578 3.2565 17.1593 0 11.9997 0C6.84012 0 2.44161 3.2565 0.746094 7.82611V7.82611Z"></path>
</g>
<defs>
<clipPath id="clip0_5979_52706">
<rect fill="white" height="24" width="24"></rect>
</clipPath>
</defs>
</svg>
