<svg xmlns="http://www.w3.org/2000/svg" fill="none" viewBox="0 0 24 24" height="24" width="24">
<path fill="#6DA544" d="M12 24C18.6274 24 24 18.6274 24 12C24 5.37258 18.6274 0 12 0C5.37258 0 0 5.37258 0 12C0 18.6274 5.37258 24 12 24Z"></path>
<path fill="#FFDA44" d="M11.9999 4.69556L21.913 11.9999L11.9999 19.3042L2.08691 11.9999L11.9999 4.69556Z"></path>
<path fill="#F0F0F0" d="M12.0001 16.1739C14.3052 16.1739 16.174 14.3052 16.174 12C16.174 9.69483 14.3052 7.82611 12.0001 7.82611C9.69489 7.82611 7.82617 9.69483 7.82617 12C7.82617 14.3052 9.69489 16.1739 12.0001 16.1739Z"></path>
<path fill="#0052B4" d="M9.91275 11.7392C9.18694 11.7392 8.48649 11.8496 7.82715 12.0544C7.85635 14.3344 9.71279 16.174 11.9997 16.174C13.4138 16.174 14.6628 15.4701 15.4178 14.3942C14.1261 12.7772 12.1385 11.7392 9.91275 11.7392Z"></path>
<path fill="#0052B4" d="M16.0961 12.7997C16.1464 12.5408 16.1735 12.2736 16.1735 12C16.1735 9.69478 14.3048 7.82611 11.9997 7.82611C10.2796 7.82611 8.80306 8.86678 8.16406 10.3526C8.72891 10.2356 9.31372 10.1739 9.91273 10.1739C12.337 10.1739 14.5301 11.1816 16.0961 12.7997Z"></path>
</svg>
