<svg xmlns="http://www.w3.org/2000/svg" fill="none" viewBox="0 0 512 512" height="512" width="512">
<g clip-path="url(#clip0_4_7123)">
<path fill="#F0F0F0" d="M256 512C397.385 512 512 397.385 512 256C512 114.615 397.385 0 256 0C114.615 0 0 114.615 0 256C0 397.385 114.615 512 256 512Z"></path>
<path fill="#D80027" d="M512 256C512 397.384 397.384 512 256 512C114.616 512 0 397.384 0 256C0 114.616 256 256 256 256C256 256 449.761 256 512 256Z"></path>
<path fill="#0052B4" d="M0 256C0 114.616 114.616 0 256 0V256C256 256 89.043 256 0 256Z"></path>
<path fill="#F0F0F0" d="M152.389 89.043L168.966 140.061H222.609L179.211 171.591L195.787 222.609L152.389 191.078L108.991 222.609L125.567 171.591L82.1689 140.061H135.812L152.389 89.043Z"></path>
</g>
<defs>
<clipPath id="clip0_4_7123">
<rect fill="white" height="512" width="512"></rect>
</clipPath>
</defs>
</svg>
