<svg xmlns="http://www.w3.org/2000/svg" fill="none" viewBox="0 0 24 24" height="24" width="24">
<path fill="#0052B4" d="M12 24C18.6274 24 24 18.6274 24 12C24 5.37258 18.6274 0 12 0C5.37258 0 0 5.37258 0 12C0 18.6274 5.37258 24 12 24Z"></path>
<path fill="#FFDA44" d="M12.0012 4.6958L12.3898 5.89154H13.647L12.6298 6.63052L13.0184 7.82626L12.0012 7.08723L10.9841 7.82626L11.3726 6.63052L10.3555 5.89154H11.6127L12.0012 4.6958Z"></path>
<path fill="#FFDA44" d="M6.83474 6.83454L7.95506 7.4053L8.84404 6.51636L8.6473 7.75808L9.76757 8.32887L8.5258 8.52556L8.32912 9.76737L7.75832 8.64711L6.5166 8.84384L7.40559 7.95486L6.83474 6.83454Z"></path>
<path fill="#FFDA44" d="M4.69531 12.0005L5.89105 11.6119V10.3547L6.62998 11.3719L7.82577 10.9833L7.08669 12.0005L7.82577 13.0176L6.62998 12.6291L5.89105 13.6463V12.389L4.69531 12.0005Z"></path>
<path fill="#FFDA44" d="M6.83474 17.1658L7.40554 16.0454L6.5166 15.1565L7.75837 15.3532L8.32907 14.233L8.52581 15.4747L9.76752 15.6714L8.6474 16.2422L8.84404 17.4839L7.95506 16.595L6.83474 17.1658Z"></path>
<path fill="#FFDA44" d="M12.0012 19.3044L11.6127 18.1086H10.3555L11.3727 17.3697L10.9841 16.174L12.0012 16.9129L13.0184 16.174L12.6298 17.3697L13.647 18.1086H12.3897L12.0012 19.3044Z"></path>
<path fill="#FFDA44" d="M17.1661 17.1658L16.0459 16.595L15.1568 17.484L15.3536 16.2422L14.2334 15.6714L15.4751 15.4747L15.6718 14.233L16.2426 15.3532L17.4843 15.1565L16.5953 16.0455L17.1661 17.1658Z"></path>
<path fill="#FFDA44" d="M19.3032 12.0005L18.1075 12.389V13.6463L17.3685 12.6291L16.1729 13.0176L16.9118 12.0005L16.1729 10.9833L17.3685 11.3719L18.1075 10.3547V11.612L19.3032 12.0005Z"></path>
<path fill="#FFDA44" d="M17.1661 6.8345L16.5953 7.95481L17.4843 8.84379L16.2425 8.64701L15.6718 9.76728L15.4751 8.52551L14.2334 8.32878L15.3536 7.75803L15.1568 6.51636L16.0459 7.40529L17.1661 6.8345Z"></path>
</svg>
