<svg xmlns="http://www.w3.org/2000/svg" fill="none" viewBox="0 0 24 24" height="24" width="24">
<path fill="#F0F0F0" d="M12 24C18.6274 24 24 18.6274 24 12C24 5.37258 18.6274 0 12 0C5.37258 0 0 5.37258 0 12C0 18.6274 5.37258 24 12 24Z"></path>
<path fill="#0052B4" d="M2.47983 4.6944C1.53722 5.92079 0.826457 7.3343 0.412598 8.86988H6.65532L2.47983 4.6944Z"></path>
<path fill="#0052B4" d="M23.5849 8.86941C23.1711 7.33388 22.4602 5.92036 21.5177 4.69397L17.3423 8.86941H23.5849Z"></path>
<path fill="#0052B4" d="M0.412598 15.1306C0.826504 16.6661 1.53727 18.0796 2.47983 19.3059L6.65518 15.1306H0.412598Z"></path>
<path fill="#0052B4" d="M19.3039 2.48067C18.0775 1.53806 16.664 0.827297 15.1284 0.413391V6.65606L19.3039 2.48067Z"></path>
<path fill="#0052B4" d="M4.69287 21.5193C5.91926 22.4619 7.33278 23.1727 8.86831 23.5866V17.344L4.69287 21.5193Z"></path>
<path fill="#0052B4" d="M8.86826 0.413391C7.33273 0.827297 5.91921 1.53806 4.69287 2.48063L8.86826 6.65602V0.413391Z"></path>
<path fill="#0052B4" d="M15.1294 23.5866C16.6649 23.1727 18.0784 22.4619 19.3048 21.5194L15.1294 17.344V23.5866Z"></path>
<path fill="#0052B4" d="M17.3423 15.1306L21.5177 19.306C22.4602 18.0796 23.1711 16.6661 23.5849 15.1306H17.3423Z"></path>
<path fill="#D80027" d="M23.8984 10.4348H13.5653H13.5652V0.101578C13.0529 0.034875 12.5305 0 12 0C11.4694 0 10.9471 0.034875 10.4348 0.101578V10.4347V10.4348H0.101578C0.034875 10.9471 0 11.4695 0 12C0 12.5306 0.034875 13.0529 0.101578 13.5652H10.4347H10.4348V23.8984C10.9471 23.9651 11.4694 24 12 24C12.5305 24 13.0529 23.9652 13.5652 23.8984V13.5653V13.5652H23.8984C23.9651 13.0529 24 12.5306 24 12C24 11.4695 23.9651 10.9471 23.8984 10.4348Z"></path>
<path fill="#D80027" d="M15.1313 15.1304L20.4862 20.4852C20.7324 20.239 20.9674 19.9816 21.1915 19.7148L16.6071 15.1303H15.1313V15.1304Z"></path>
<path fill="#D80027" d="M8.86901 15.1303H8.86892L3.51416 20.4851C3.76035 20.7314 4.01774 20.9663 4.28455 21.1904L8.86901 16.6059V15.1303Z"></path>
<path fill="#D80027" d="M8.86927 8.86979V8.86969L3.51446 3.51483C3.26818 3.76102 3.03324 4.01841 2.80908 4.28522L7.3936 8.86974H8.86927V8.86979Z"></path>
<path fill="#D80027" d="M15.1313 8.8695L20.4862 3.51459C20.24 3.26831 19.9826 3.03337 19.7158 2.80927L15.1313 7.39378V8.8695V8.8695Z"></path>
</svg>
