<svg xmlns="http://www.w3.org/2000/svg" fill="none" viewBox="0 0 513 512" height="512" width="513">
<g clip-path="url(#clip0_4_7239)">
<path fill="#F0F0F0" d="M256.988 512C398.373 512 512.988 397.385 512.988 256C512.988 114.615 398.373 0 256.988 0C115.603 0 0.988281 114.615 0.988281 256C0.988281 397.385 115.603 512 256.988 512Z"></path>
<path fill="#6DA544" d="M0.988281 256C0.988281 366.072 70.4603 459.906 167.945 496.078V15.9241C70.4603 52.0941 0.988281 145.93 0.988281 256Z"></path>
<path fill="#6DA544" d="M512.988 256C512.988 145.93 443.516 52.0941 346.031 15.9241V496.079C443.516 459.906 512.988 366.072 512.988 256Z"></path>
</g>
<defs>
<clipPath id="clip0_4_7239">
<rect transform="translate(0.988281)" fill="white" height="512" width="512"></rect>
</clipPath>
</defs>
</svg>
