<svg xmlns="http://www.w3.org/2000/svg" fill="none" viewBox="0 0 24 24" height="24" width="24">
<g clip-path="url(#clip0_5979_52704)">
<path fill="#F0F0F0" d="M12 24C18.6274 24 24 18.6274 24 12C24 5.37258 18.6274 0 12 0C5.37258 0 0 5.37258 0 12C0 18.6274 5.37258 24 12 24Z"></path>
<path fill="#D80027" d="M0.413086 15.1304C1.1074 17.7066 2.63763 19.9395 4.69535 21.5205V15.1304H0.413086Z"></path>
<path fill="#D80027" d="M10.9561 23.9543C11.3 23.9839 11.6479 24 11.9995 24C17.5439 24 22.2091 20.2396 23.5861 15.1304H10.9561V23.9543Z"></path>
<path fill="#D80027" d="M23.5861 8.86955C22.2091 3.76036 17.5439 0 11.9995 0C11.6479 0 11.3 0.0160312 10.9561 0.0456562V8.86955H23.5861Z"></path>
<path fill="#D80027" d="M4.69535 2.47943C2.63763 4.06052 1.1074 6.29332 0.413086 8.86952H4.69535V2.47943Z"></path>
<path fill="#0052B4" d="M23.8984 10.4348H9.39136H9.39131V0.285217C8.28234 0.531124 7.23098 0.929702 6.26086 1.45906V10.4347V10.4347H0.101578C0.0347813 10.9471 0 11.4695 0 12C0 12.5305 0.0347813 13.0528 0.101578 13.5652H6.26081H6.26086V22.5409C7.23098 23.0702 8.28234 23.4688 9.39131 23.7147V13.5653V13.5652H23.8984C23.9651 13.0528 24 12.5305 24 12C24 11.4695 23.9651 10.9471 23.8984 10.4348V10.4348Z"></path>
</g>
<defs>
<clipPath id="clip0_5979_52704">
<rect fill="white" height="24" width="24"></rect>
</clipPath>
</defs>
</svg>
