<svg xmlns="http://www.w3.org/2000/svg" fill="none" viewBox="0 0 512 512" height="512" width="512">
<g clip-path="url(#clip0_4_7255)">
<path fill="#F0F0F0" d="M256 512C397.385 512 512 397.385 512 256C512 114.615 397.385 0 256 0C114.615 0 0 114.615 0 256C0 397.385 114.615 512 256 512Z"></path>
<path fill="#D80027" d="M512 256C512 145.93 442.528 52.0939 345.043 15.924V496.079C442.528 459.906 512 366.072 512 256Z"></path>
<path fill="#D80027" d="M0 256C0 366.072 69.472 459.906 166.957 496.078V15.924C69.472 52.0939 0 145.93 0 256Z"></path>
</g>
<defs>
<clipPath id="clip0_4_7255">
<rect fill="white" height="512" width="512"></rect>
</clipPath>
</defs>
</svg>
