<svg xmlns="http://www.w3.org/2000/svg" fill="none" viewBox="0 0 512 512" height="512" width="512">
<g clip-path="url(#clip0_4_7306)">
<path fill="#F0F0F0" d="M256 512.001C397.385 512.001 512 397.386 512 256.001C512 114.616 397.385 0.000976562 256 0.000976562C114.615 0.000976562 0 114.616 0 256.001C0 397.386 114.615 512.001 256 512.001Z"></path>
<path fill="#0052B4" d="M496.077 166.958H15.923C5.632 194.691 0 224.687 0 256.001C0 287.315 5.632 317.311 15.923 345.044H496.078C506.368 317.311 512 287.315 512 256.001C512 224.687 506.368 194.691 496.077 166.958Z"></path>
<path fill="#D80027" d="M256 0.000976562C178.409 0.000976562 108.886 34.525 61.939 89.044H450.06C403.114 34.525 333.591 0.000976562 256 0.000976562Z"></path>
<path fill="#D80027" d="M450.061 422.958H61.939C108.886 477.477 178.409 512.001 256 512.001C333.591 512.001 403.114 477.477 450.061 422.958Z"></path>
</g>
<defs>
<clipPath id="clip0_4_7306">
<rect transform="translate(0 0.000976562)" fill="white" height="512" width="512"></rect>
</clipPath>
</defs>
</svg>
